<svg width="24" height="24" viewBox="0 0 24 24" fill="none" xmlns="http://www.w3.org/2000/svg">
<path d="M5 2C3.8954 2 3 2.9 3 4V12V16V22C3 23.1 3.8954 24 5 24H19C20.105 24 21 23.1 21 22V16V12V8L15 2H5Z" fill="#8E44AD"/>
<path d="M5 1C3.8954 1 3 1.9 3 3V11V15V21C3 22.1 3.8954 23 5 23H19C20.105 23 21 22.1 21 21V15V11V7L15 1H5Z" fill="#9B59B6"/>
<path d="M21 7L15 1V5C15 6.1 15.895 7 17 7H21Z" fill="#8E44AD"/>
<path d="M15 13V20H16V18H16.938H17C18.381 18 19.5 16.881 19.5 15.5C19.5 14.119 18.381 13 17 13H16.938H16H15.5H15ZM16 14H16.938H17H17.031C17.846 14.016 18.5 14.682 18.5 15.5C18.5 16.318 17.846 16.984 17.031 17H17H16.938H16V14Z" fill="#ECF0F1"/>
</svg>
